<svg width="504" height="706" viewBox="0 0 504 706" fill="none" xmlns="http://www.w3.org/2000/svg">
<path d="M504 705.7H0L20 144.4H484L504 705.7Z" fill="#EE3224"/>
<path fill-rule="evenodd" clip-rule="evenodd" d="M220.198 500.85V576.5C220.198 597.8 202.898 615.1 181.598 615.1H145.398V262.6H167.998C196.798 262.6 220.198 286 220.198 314.8V485.16L296.298 379.1H332.898C351.798 379.1 362.498 400.9 350.898 415.8L293.598 490L384.798 615.1H320.698C305.798 615.1 291.898 607.7 283.598 595.3L220.198 500.85Z" fill="white"/>
<path d="M329.9 151.5C329.9 154.8 329.7 158.1 329.3 161.3H403.2C403.4 158 403.5 154.8 403.5 151.5C403.5 67.8 335.7 0 252 0C168.3 0 100.5 67.8 100.5 151.5C100.5 154.8 100.6 158.1 100.8 161.3H174.7C174.3 158.1 174.1 154.8 174.1 151.5C174.1 108.5 209 73.6 252 73.6C295 73.6 329.9 108.5 329.9 151.5Z" fill="#EE3224"/>
</svg>
